<?xml version="1.0" encoding="UTF-8"?>
<svg id="Layer_1" xmlns="http://www.w3.org/2000/svg" version="1.1" viewBox="0 0 1000 1000">
  <!-- Generator: Adobe Illustrator 30.6.0, SVG Export Plug-In . SVG Version: 2.1.4 Build 109)  -->
  <rect width="1000" height="1000" rx="180" ry="180"/>
  <g>
    <path d="M101.4,636.6l161.8-269.8c1.8-3,4.8-3.4,5.9-3.4s4.1.3,5.9,3.3l162.4,269.3-57.8.5-97.8-161.8c-2.7-4.4-7.4-7.1-12.5-7.1s-9.9,2.7-12.5,7.1l-97.2,161.8h-58.1Z" fill="#fff"/>
    <path d="M361,408.9l-26.9-45.4h.2c33.9,0,65.7,17.3,84.2,45.4h-57.6Z" fill="#fff"/>
    <path d="M500,636.4c-1.4,0-4.8-.4-7-4l-98.1-166.1,57.6.2,34.1,58.1c2.8,4.7,7.7,7.5,13.1,7.5s10.4-2.8,13.1-7.6l61.2-105c3-5.1,6.6-10.2,10.7-15.1l.3-.3.2-.4c8.7-13,24-24.2,42.9-31.5,14-5.8,28.5-8.7,43.4-8.7h207c0-.1.2,41.3.2,41.3l-204.8.2c-19.3,0-37,9.4-49.7,26.4l-.3.4-117.1,200.5c-2.1,3.6-5.6,4-7,4Z" fill="#fff"/>
    <path d="M645.5,594.7l181.4-.8.9-.2c16.9-3.7,29.2-18.9,29.2-36.1,0-17.2-11.6-32.2-28.4-36.3l-1-.2-147-.9c-20-.1-34.8-13-36.8-32l-1-9.7,183.3.3c7.3.6,40.8,4.8,59.6,32.2,12.4,18,12.6,37,12.7,45.1,0,7.9.3,29-13.4,48.4-18.5,26.1-48.9,30.6-58.4,31.4l-180.2.6-1.1-41.8Z" fill="#fff"/>
  </g>
</svg>